<svg width="132" height="67" viewBox="0 0 132 67" fill="none" xmlns="http://www.w3.org/2000/svg">
<path d="M18.688 66.0481L9.47202 59.6481L16.384 49.6641C17.4934 48.0427 18.816 46.4641 20.352 44.9281C21.888 43.3067 23.424 41.8134 24.96 40.4481C26.5814 38.9974 27.9894 37.7601 29.184 36.7361L28.8 35.8401C27.1787 35.6694 25.344 35.4987 23.296 35.3281C21.248 35.0721 19.1574 34.7307 17.024 34.3041C14.976 33.7921 13.056 33.2374 11.264 32.6401L1.95503e-05 28.5441L3.84002 17.9201L15.104 22.0161C16.896 22.6134 18.7307 23.4667 20.608 24.5761C22.5707 25.6001 24.448 26.7094 26.24 27.9041C28.032 29.0134 29.568 30.0801 30.848 31.1041L31.488 30.5921C31.0614 28.9707 30.592 27.1361 30.08 25.0881C29.568 22.9547 29.1414 20.7787 28.8 18.5601C28.4587 16.2561 28.288 14.1227 28.288 12.1601V7.62939e-05H39.552V12.1601C39.552 14.1227 39.3814 16.2561 39.04 18.5601C38.6987 20.7787 38.272 22.9547 37.76 25.0881C37.248 27.1361 36.736 28.9707 36.224 30.5921L36.864 31.1041C38.2294 30.0801 39.7654 29.0134 41.472 27.9041C43.264 26.7094 45.0987 25.6001 46.976 24.5761C48.9387 23.4667 50.816 22.6134 52.608 22.0161L64 17.9201L67.84 28.5441L56.448 32.6401C54.7414 33.2374 52.8214 33.7921 50.688 34.3041C48.64 34.7307 46.592 35.0721 44.544 35.3281C42.496 35.4987 40.6614 35.6694 39.04 35.8401L38.528 36.8641C39.808 37.8881 41.216 39.1254 42.752 40.5761C44.3734 41.9414 45.9094 43.4347 47.36 45.0561C48.896 46.5921 50.176 48.1281 51.2 49.6641L58.24 59.6481L49.024 66.0481L41.984 56.0641C40.96 54.5281 39.936 52.7787 38.912 50.8161C37.9734 48.8534 37.0774 46.8907 36.224 44.9281C35.456 42.9654 34.816 41.2161 34.304 39.6801H33.408C32.896 41.2161 32.2134 42.9654 31.36 44.9281C30.592 46.8907 29.696 48.8534 28.672 50.8161C27.7334 52.7787 26.7094 54.5281 25.6 56.0641L18.688 66.0481ZM90.19 40.9601V30.7201H131.15V40.9601H90.19Z" fill="black"/>
</svg>
